<?xml version="1.0" encoding="UTF-8"?>
<svg width="40px" height="40px" viewBox="0 0 40 40" version="1.1" xmlns="http://www.w3.org/2000/svg" xmlns:xlink="http://www.w3.org/1999/xlink">
    <!-- Generator: Sketch 48.2 (47327) - http://www.bohemiancoding.com/sketch -->
    <title>Mail</title>
    <desc>Created with Sketch.</desc>
    <defs>
        <path d="M9.60046152,11.333144 L9.60041408,11.333144 C9.57030619,11.3041922 9.51124656,11.2740843 9.48113866,11.2740843 C10.2222744,10.799295 11.0815176,10.5329486 12.0010003,10.5329486 L27.2707689,10.5329486 C28.1902515,10.5329486 29.0494947,10.8294029 29.7906305,11.2740843 C29.7605226,11.3030361 29.7315709,11.3030361 29.701463,11.333144 L20.0666979,19.3374103 L20.03659,19.3675182 C19.8281233,19.574805 19.5027292,19.574805 19.2653345,19.3675182 L19.2352266,19.3374103 L9.60046152,11.333144 Z M31.4186093,12.9348866 L31.4189532,12.9348866 C31.8045869,13.6157829 32.0419816,14.4171582 32.0419816,15.2764013 L32.0419816,25.0593935 C32.0419816,27.6684286 29.9077477,29.8026625 27.2987126,29.8026625 L12.0010774,29.8026625 C9.39204228,29.8026625 7.25780842,27.6684286 7.25780842,25.0593935 L7.25780842,15.2764013 C7.25780842,14.4171582 7.49520903,13.6169687 7.88083679,12.9348866 C7.93989642,12.9939462 7.99895605,13.0831138 8.08812357,13.1421734 L17.6926503,21.1464397 C18.256625,21.6501808 18.938707,21.8875755 19.6497231,21.8875755 C20.3619249,21.8875755 21.044007,21.621241 21.6067958,21.1464397 L31.2113225,13.1421734 C31.3004901,13.0831138 31.3595497,13.0240541 31.4186093,12.9348866 Z" id="path-1"></path>
    </defs>
    <g id="Icons" stroke="none" stroke-width="1" fill="none" fill-rule="evenodd">
        <g id="Mail">
            <mask id="mask-2" fill="white">
                <use xlink:href="#path-1"></use>
            </mask>
            <use id="Mask" fill="#000000" fill-rule="nonzero" xlink:href="#path-1"></use>
            <g id="Blue" mask="url(#mask-2)" fill="#3C71D0">
                <g transform="translate(-30.000000, -30.000000)" id="Rectangle">
                    <rect x="0" y="0" width="100" height="100"></rect>
                </g>
            </g>
        </g>
    </g>
</svg>