<?xml version="1.0" encoding="UTF-8"?>
<svg width="27px" height="27px" viewBox="0 0 27 27" version="1.1" xmlns="http://www.w3.org/2000/svg" xmlns:xlink="http://www.w3.org/1999/xlink">
    <!-- Generator: Sketch 48.2 (47327) - http://www.bohemiancoding.com/sketch -->
    <title>Error</title>
    <desc>Created with Sketch.</desc>
    <defs>
        <path d="M21.4723926,34.0512821 C14.3570676,34.0512821 8.58895706,28.3343027 8.58895706,21.2820513 C8.58895706,14.2297999 14.3570676,8.51282051 21.4723926,8.51282051 C28.5877176,8.51282051 34.3558282,14.2297999 34.3558282,21.2820513 C34.3558282,28.3343027 28.5877176,34.0512821 21.4723926,34.0512821 Z M21.2171685,13.8333333 C20.1771468,13.8333333 19.3251534,14.6646917 19.3251534,15.6954942 L19.7114761,22.4045063 C19.7114761,23.2227448 20.3783746,23.8968515 21.2171685,23.8968515 C22.0427252,23.8968515 22.7096613,23.2227448 22.7096613,22.4045063 L23.0959841,15.6954942 C23.0959841,14.6646917 22.242524,13.8333333 21.2171685,13.8333333 Z M21.2171685,25.0064475 C20.1771468,25.0064475 19.3251534,25.8378059 19.3251534,26.8686084 C19.3251534,27.8994108 20.1786135,28.7307692 21.2171685,28.7307692 C22.242524,28.7307692 23.0959841,27.8994108 23.0959841,26.8686084 C23.0959841,25.8378059 22.242524,25.0064475 21.2171685,25.0064475 Z" id="path-1"></path>
    </defs>
    <g id="01b-Login---Error" stroke="none" stroke-width="1" fill="none" fill-rule="evenodd" transform="translate(-278.000000, -717.000000)">
        <g id="Error" transform="translate(270.000000, 709.000000)">
            <mask id="mask-2" fill="white">
                <use xlink:href="#path-1"></use>
            </mask>
            <use id="Mask" fill="#D8D8D8" xlink:href="#path-1"></use>
            <g id="Red" mask="url(#mask-2)" fill="#FF1068">
                <g transform="translate(-32.208589, -31.923077)" id="Rectangle">
                    <rect x="0" y="0" width="107" height="106"></rect>
                </g>
            </g>
        </g>
    </g>
</svg>