<?xml version="1.0" encoding="UTF-8"?>
<svg width="40px" height="40px" viewBox="0 0 40 40" version="1.1" xmlns="http://www.w3.org/2000/svg" xmlns:xlink="http://www.w3.org/1999/xlink">
    <!-- Generator: Sketch 48.2 (47327) - http://www.bohemiancoding.com/sketch -->
    <title>Padlock</title>
    <desc>Created with Sketch.</desc>
    <defs>
        <path d="M28.7309135,17.6187449 L27.8115469,17.6187449 L27.8115469,15.9609439 C27.8115469,11.6683666 24.0944784,8.18868092 19.9999132,8.18868092 C15.9053479,8.18868092 12.1882794,11.6683666 12.1882794,15.9609439 L12.1882794,17.6187449 L11.2689128,17.6187449 C10.7634321,17.6187449 10.3506753,18.0529818 10.3506753,18.5822009 L10.3506753,28.1241243 C10.3506753,30.2817321 12.5772689,32.3139322 14.6377523,32.3139322 L25.7559559,32.3139322 C27.8163235,32.3139322 29.6493247,30.2818479 29.6493247,28.1241243 L29.6493247,18.5822009 C29.6493247,18.0529818 29.2365679,17.6187449 28.7310872,17.6187449 L28.7309135,17.6187449 Z M15.6349051,15.9609439 C15.6349051,13.4211207 17.5776524,11.3617953 19.9998553,11.3617953 C22.4220581,11.3617953 24.3648054,13.4210339 24.3648054,15.9609439 L24.3648054,17.6187449 L15.6349051,17.6187449 L15.6349051,15.9609439 Z" id="path-1"></path>
    </defs>
    <g id="Icons" stroke="none" stroke-width="1" fill="none" fill-rule="evenodd">
        <g id="Padlock">
            <mask id="mask-2" fill="white">
                <use xlink:href="#path-1"></use>
            </mask>
            <use id="Mask" fill="#000000" fill-rule="nonzero" xlink:href="#path-1"></use>
            <g id="Blue" mask="url(#mask-2)" fill="#3C71D0">
                <g transform="translate(-30.000000, -30.000000)" id="Rectangle">
                    <rect x="0" y="0" width="100" height="100"></rect>
                </g>
            </g>
        </g>
    </g>
</svg>