<?xml version="1.0" encoding="UTF-8"?>
<svg width="24px" height="26px" viewBox="0 0 24 26" version="1.1" xmlns="http://www.w3.org/2000/svg" xmlns:xlink="http://www.w3.org/1999/xlink">
    <!-- Generator: Sketch 48.2 (47327) - http://www.bohemiancoding.com/sketch -->
    <title>Success</title>
    <desc>Created with Sketch.</desc>
    <defs>
        <path d="M12,24.8947368 C5.372583,24.8947368 0,19.3218602 0,12.4473684 C0,5.57287667 5.372583,0 12,0 C18.627417,0 24,5.57287667 24,12.4473684 C24,19.3218602 18.627417,24.8947368 12,24.8947368 Z M17.71504,7.35448494 C17.4698894,7.10396436 17.1478292,6.97821365 16.8259167,6.97821365 C16.5038565,6.97821365 16.1817938,7.10298351 15.9366456,7.35448494 L10.5529171,14.8140519 L7.88507943,12.0877764 C7.63992877,11.8372558 7.31786858,11.7115051 6.9958084,11.7115051 C6.67374821,11.7115051 6.35168557,11.8372583 6.10653737,12.0877764 C5.61527622,12.5897984 5.61527622,13.4032546 6.10653737,13.9052766 L9.66357227,17.5402268 C9.90872292,17.7907473 10.2307831,17.916498 10.5528433,17.916498 C10.8749035,17.916498 11.1969661,17.7907448 11.4421143,17.5402268 L17.71504,9.17198516 C18.2063012,8.66996316 18.2063012,7.85650694 17.71504,7.35448494 Z" id="path-1"></path>
    </defs>
    <g id="Authentication" stroke="none" stroke-width="1" fill="none" fill-rule="evenodd">
        <g id="Pop-up-/-Data-Import-/-Success-Copy" transform="translate(-370.000000, -264.000000)">
            <g id="Alerts-/-Form-/-Error" transform="translate(96.000000, 235.462719)">
                <g id="Success" transform="translate(274.000000, 29.043860)">
                    <mask id="mask-2" fill="white">
                        <use xlink:href="#path-1"></use>
                    </mask>
                    <use id="Mask" fill="#088251" xlink:href="#path-1"></use>
                </g>
            </g>
        </g>
    </g>
</svg>