<svg id="Layer_1" enable-background="new 0 0 512 512" height="512" viewBox="0 0 512 512" width="512" xmlns="http://www.w3.org/2000/svg"><g><path d="m122 6h320v448h-320z" fill="#b9c2cf"/><path d="m122 438h320v16h-320z" fill="#95a4b6"/><path d="m390 138v368h-320v-448h240z" fill="#fff"/><path d="m310 138h80v16h-80z" fill="#dce1e7"/><path d="m70 490h320v16h-320z" fill="#dce1e7"/><path d="m390 138h-80v-80" fill="#95a4b6"/><g fill="#012d4a"><path d="m116 0v52h-52v460h332v-52h52v-460zm268 500h-308v-436h228v80h80zm-68-368v-59.515l59.515 59.515zm120 316h-40v-312.485l-83.515-83.515h-184.485v-40h308z"/><path d="m118 116h96v12h-96z"/><path d="m118 148h64v12h-64z"/><path d="m118 196h224v12h-224z"/><path d="m118 228h224v12h-224z"/><path d="m118 292h224v12h-224z"/><path d="m118 324h160v12h-160z"/><path d="m118 260h224v12h-224z"/><path d="m262 372h80v12h-80z"/></g></g></svg>