<?xml version="1.0" encoding="UTF-8"?>
<svg width="157px" height="71px" viewBox="0 0 157 71" version="1.1" xmlns="http://www.w3.org/2000/svg" xmlns:xlink="http://www.w3.org/1999/xlink">
    <defs>
        <path d="M25.2254419,34.5329393 L29.9146544,39.2221518 C29.0794076,40.3680262 28.5865672,41.7794436 28.5865672,43.3059701 C28.5865672,47.1389912 31.6938446,50.2462687 35.5268657,50.2462687 C39.3598867,50.2462687 42.4671642,47.1389912 42.4671642,43.3059701 C42.4671642,42.285387 42.2468744,41.3162553 41.8512497,40.44353 L47.3953842,34.4981737 C48.4996028,35.2392824 49.8284144,35.6716418 51.258209,35.6716418 C51.490658,35.6716418 51.720438,35.6602142 51.9470178,35.6378903 C51.9504927,35.8029502 51.9522388,35.9684354 51.9522388,36.1343284 L51.9522388,59.2686567 L28.8179104,59.2686567 C21.6787067,59.2686567 15.2948066,56.0348174 11.0511312,50.9520597 C12.5777685,49.6789654 13.5492537,47.7626355 13.5492537,45.619403 C13.5492537,44.3009499 13.1816102,43.0683646 12.5432461,42.0185702 L18.8998864,35.2019081 C19.6796854,35.5052246 20.527871,35.6716418 21.4149254,35.6716418 C22.8222147,35.6716418 24.1316751,35.2527861 25.2254419,34.5329393 Z M27.5600691,31.9600344 C28.0678443,30.995581 28.3552239,29.8970227 28.3552239,28.7313433 C28.3552239,24.8983223 25.2479464,21.7910448 21.4149254,21.7910448 C17.5819043,21.7910448 14.4746269,24.8983223 14.4746269,28.7313433 C14.4746269,30.4116697 15.0717789,31.9525238 16.0654446,33.1532671 L10.0580174,39.595444 C9.04197173,39.012444 7.86439129,38.6791045 6.60895522,38.6791045 C6.34450816,38.6791045 6.08351554,38.6938947 5.82675944,38.7226931 C5.73215775,37.8729501 5.68358209,37.0093119 5.68358209,36.1343284 C5.68358209,23.3575916 16.0411737,13 28.8179104,13 C36.6156884,13 43.5123854,16.8579857 47.7033713,22.7693267 C45.6757036,23.9809235 44.3179104,26.1975686 44.3179104,28.7313433 C44.3179104,29.8705671 44.5923937,30.945682 45.0788341,31.8941619 L39.6462714,37.7198722 C38.4940907,36.8687939 37.0692335,36.3656716 35.5268657,36.3656716 C34.4841025,36.3656716 33.4950515,36.5956405 32.6076627,37.007628 L27.5600691,31.9600344 Z M6.60895522,49.2283582 C8.60212616,49.2283582 10.2179104,47.6125739 10.2179104,45.619403 C10.2179104,43.6262321 8.60212616,42.0104478 6.60895522,42.0104478 C4.61578429,42.0104478 3,43.6262321 3,45.619403 C3,47.6125739 4.61578429,49.2283582 6.60895522,49.2283582 Z M21.4149254,32.3402985 C23.4080963,32.3402985 25.0238806,30.7245142 25.0238806,28.7313433 C25.0238806,26.7381724 23.4080963,25.1223881 21.4149254,25.1223881 C19.4217544,25.1223881 17.8059701,26.7381724 17.8059701,28.7313433 C17.8059701,30.7245142 19.4217544,32.3402985 21.4149254,32.3402985 Z M35.5268657,46.9149254 C37.5200366,46.9149254 39.1358209,45.2991411 39.1358209,43.3059701 C39.1358209,41.3127992 37.5200366,39.6970149 35.5268657,39.6970149 C33.5336947,39.6970149 31.9179104,41.3127992 31.9179104,43.3059701 C31.9179104,45.2991411 33.5336947,46.9149254 35.5268657,46.9149254 Z M51.258209,32.3402985 C49.265038,32.3402985 47.6492537,30.7245142 47.6492537,28.7313433 C47.6492537,26.7381724 49.265038,25.1223881 51.258209,25.1223881 C53.2513799,25.1223881 54.8671642,26.7381724 54.8671642,28.7313433 C54.8671642,30.7245142 53.2513799,32.3402985 51.258209,32.3402985 Z M74.2659104,44.5423284 C72.4899016,42.5983186 71.6019104,40.1263434 71.6019104,37.1263284 C71.6019104,34.1263134 72.4899016,31.6723379 74.2659104,29.7643284 C76.0419193,27.8563188 78.2978968,26.9023284 81.0339104,26.9023284 C83.7699241,26.9023284 85.8579032,28.0303171 87.2979104,30.2863284 L87.2979104,27.1903284 L92.3379104,27.1903284 L92.3379104,47.1343284 L87.2979104,47.1343284 L87.2979104,43.7863284 C85.7859029,46.2103405 83.6859239,47.4223284 80.9979104,47.4223284 C78.309897,47.4223284 76.0659194,46.462338 74.2659104,44.5423284 Z M85.7139104,41.4823284 C86.7699157,40.4263231 87.2979104,38.9863375 87.2979104,37.1623284 C87.2979104,35.3383192 86.7699157,33.9043336 85.7139104,32.8603284 C84.6579052,31.8163231 83.4219175,31.2943284 82.0059104,31.2943284 C80.5899034,31.2943284 79.3599157,31.8103232 78.3159104,32.8423284 C77.2719052,33.8743335 76.7499104,35.3023192 76.7499104,37.1263284 C76.7499104,38.9503375 77.2779052,40.3903231 78.3339104,41.4463284 C79.3899157,42.5023336 80.6199034,43.0303284 82.0239104,43.0303284 C83.4279175,43.0303284 84.6579052,42.5143335 85.7139104,41.4823284 Z M102.81391,27.1903284 L102.81391,30.7183284 C104.157917,28.1743156 106.101898,26.9023284 108.64591,26.9023284 L108.64591,32.0863284 L107.38591,32.0863284 C105.873903,32.0863284 104.733914,32.4643246 103.96591,33.2203284 C103.197907,33.9763321 102.81391,35.2783191 102.81391,37.1263284 L102.81391,47.1343284 L97.7379104,47.1343284 L97.7379104,27.1903284 L102.81391,27.1903284 Z M109.79791,27.1903284 L115.19791,27.1903284 L120.34591,42.7783284 L125.45791,27.1903284 L130.85791,27.1903284 L123.51391,47.1343284 L117.14191,47.1343284 L109.79791,27.1903284 Z M135.35791,44.5783284 C133.413901,42.6823189 132.44191,40.1983437 132.44191,37.1263284 C132.44191,34.054313 133.425901,31.5823377 135.39391,29.7103284 C137.36192,27.838319 139.803896,26.9023284 142.71991,26.9023284 C145.635925,26.9023284 148.077901,27.838319 150.04591,29.7103284 C152.01392,31.5823377 152.99791,34.054313 152.99791,37.1263284 C152.99791,40.1983437 152.00792,42.6823189 150.02791,44.5783284 C148.047901,46.4743378 145.593925,47.4223284 142.66591,47.4223284 C139.737896,47.4223284 137.30192,46.4743378 135.35791,44.5783284 Z M142.66591,43.1383284 C144.081918,43.1383284 145.299905,42.6163336 146.31991,41.5723284 C147.339916,40.5283231 147.84991,39.0523379 147.84991,37.1443284 C147.84991,35.2363188 147.345915,33.7663335 146.33791,32.7343284 C145.329905,31.7023232 144.111918,31.1863284 142.68391,31.1863284 C141.255903,31.1863284 140.049915,31.7023232 139.06591,32.7343284 C138.081906,33.7663335 137.58991,35.2423188 137.58991,37.1623284 C137.58991,39.082338 138.081906,40.5583232 139.06591,41.5903284 C140.049915,42.6223335 141.249903,43.1383284 142.66591,43.1383284 Z" id="path-1"></path>
    </defs>
    <g id="Icons" stroke="none" stroke-width="1" fill="none" fill-rule="evenodd">
        <g id="Logo">
            <mask id="mask-2" fill="white">
                <use xlink:href="#path-1"></use>
            </mask>
            <use id="shape" fill="#D0021B" xlink:href="#path-1"></use>
            <g id="Blue" mask="url(#mask-2)" fill="#FFFFFF">
                <g transform="translate(-6.940299, -5.000000)" id="Rectangle">
                    <rect x="0" y="0" width="168" height="84"></rect>
                </g>
            </g>
        </g>
    </g>
</svg>